<?xml version="1.0" standalone="no"?>
<!DOCTYPE svg PUBLIC "-//W3C//DTD SVG 20010904//EN"
 "http://www.w3.org/TR/2001/REC-SVG-20010904/DTD/svg10.dtd">
<svg version="1.0" xmlns="http://www.w3.org/2000/svg"
 width="500.000000pt" height="500.000000pt" viewBox="0 0 500.000000 500.000000"
 preserveAspectRatio="xMidYMid meet">
<metadata>
Created by potrace 1.14, written by Peter Selinger 2001-2017
</metadata>
<g transform="translate(0.000000,500.000000) scale(0.100000,-0.100000)"
fill="#000000" stroke="none">
<path d="M2188 3852 l-38 -3 0 -98 0 -99 213 -5 c240 -5 283 -13 415 -78 134
-65 270 -210 330 -350 51 -118 66 -291 37 -431 -8 -41 -35 -114 -61 -167 -38
-76 -62 -110 -129 -178 -45 -46 -89 -83 -98 -83 -8 0 -35 33 -61 78 l-45 77
44 41 c115 107 170 232 169 384 0 193 -86 344 -251 443 -101 62 -145 67 -580
67 l-383 0 0 -815 0 -815 100 0 100 0 0 348 c0 192 3 512 7 711 l6 362 291 -3
c280 -3 293 -4 333 -26 130 -69 196 -207 164 -339 -23 -90 -69 -145 -176 -208
-14 -8 -16 -28 -17 -123 l0 -114 47 -80 c25 -44 44 -82 41 -85 -12 -13 -91
-23 -183 -23 l-103 0 0 405 0 405 -105 0 -105 0 2 -512 3 -513 215 1 c188 1
226 3 303 23 49 13 91 21 93 18 2 -2 35 -57 72 -123 l68 -119 117 -3 c64 -1
117 1 117 5 0 7 -85 160 -147 264 -18 31 -33 63 -33 70 0 8 23 30 51 49 58 39
174 167 225 245 144 226 175 554 75 810 -105 272 -307 463 -581 550 -120 37
-354 54 -542 37z"/>
<path d="M1240 1645 l0 -25 1275 0 1275 0 0 25 0 25 -1275 0 -1275 0 0 -25z"/>
<path d="M1891 1487 c-66 -23 -99 -102 -80 -193 14 -73 54 -109 120 -109 45 0
54 4 83 36 39 41 52 103 37 168 -18 82 -86 123 -160 98z m73 -59 c24 -22 31
-52 27 -121 -1 -28 -40 -77 -61 -77 -6 0 -22 11 -35 25 -21 20 -25 34 -25 85
0 51 4 65 25 85 30 31 37 31 69 3z"/>
<path d="M2751 1487 c-57 -20 -76 -56 -76 -147 0 -93 18 -127 82 -149 61 -22
110 -1 141 59 66 132 -24 278 -147 237z m86 -65 c32 -40 27 -138 -8 -173 -24
-24 -41 -24 -70 0 -21 17 -24 28 -24 91 0 64 3 74 24 91 26 21 58 18 78 -9z"/>
<path d="M1510 1340 l0 -150 30 0 30 0 0 82 0 81 34 -39 34 -39 36 40 35 40 1
-82 0 -83 29 0 30 0 0 145 c0 79 -4 147 -9 150 -4 3 -32 -23 -60 -57 -29 -35
-56 -64 -60 -66 -4 -1 -31 27 -61 63 -30 35 -57 65 -61 65 -5 0 -8 -67 -8
-150z"/>
<path d="M2100 1341 l0 -151 25 0 c25 0 25 1 25 83 l1 82 27 -30 c15 -17 51
-57 79 -90 l53 -60 0 158 0 158 -27 -3 c-27 -3 -28 -5 -33 -81 l-5 -78 -58 70
c-93 111 -87 115 -87 -58z"/>
<path d="M2370 1340 l0 -150 30 0 30 0 0 150 0 150 -30 0 -30 0 0 -150z"/>
<path d="M2460 1465 c0 -22 4 -25 35 -25 l35 0 0 -125 0 -125 30 0 30 0 0 125
0 125 35 0 c31 0 35 3 35 25 l0 25 -100 0 -100 0 0 -25z"/>
<path d="M2960 1340 l0 -150 29 0 c28 0 30 2 33 46 l3 46 32 -46 c28 -40 37
-46 69 -46 l36 0 -29 38 c-45 57 -45 58 -13 90 24 25 30 39 30 74 -1 72 -35
98 -129 98 l-61 0 0 -150z m118 88 c29 -29 6 -98 -33 -98 -24 0 -25 3 -25 55
0 51 2 55 23 55 13 0 28 -5 35 -12z"/>
<path d="M3197 1483 c-4 -3 -7 -71 -7 -150 l0 -143 30 0 30 0 0 150 0 150 -23
0 c-13 0 -27 -3 -30 -7z"/>
<path d="M3348 1378 c-26 -62 -54 -130 -62 -150 l-16 -38 34 0 c25 0 35 5 39
20 4 17 14 20 60 20 46 0 55 -3 60 -20 4 -15 14 -20 37 -20 22 0 31 4 27 13
-39 101 -121 287 -126 287 -4 0 -28 -51 -53 -112z m82 -89 c0 -5 -13 -9 -30
-9 -35 0 -35 -1 -14 48 l15 37 15 -34 c8 -18 14 -37 14 -42z"/>
</g>
</svg>
